<?xml version="1.0" encoding="UTF-8"?>
<svg version="1.1" xmlns="http://www.w3.org/2000/svg" width="512" height="512">
<path d="M0 0 C10.72030834 9.45159132 20.33655861 19.30798856 28.88916016 30.77490234 C30.10214777 32.38659291 31.35253797 33.9699429 32.60546875 35.55078125 C52.23896245 61.26969714 64.00009119 93.61981856 68.1875 125.5 C68.36112061 126.7382251 68.53474121 127.9764502 68.71362305 129.25219727 C69.24005195 133.50964427 69.3650903 137.71746613 69.390625 142.00390625 C69.39768463 142.79593445 69.40474426 143.58796265 69.41201782 144.4039917 C69.53042155 161.61606674 69.53185246 178.54686742 66.1875 195.5 C65.88948486 197.02608887 65.88948486 197.02608887 65.58544922 198.58300781 C59.49896436 228.81026969 48.62560388 257.29699307 34.1875 284.5 C33.81689453 285.19867188 33.44628906 285.89734375 33.06445312 286.6171875 C11.67672656 326.61686248 -16.82743181 364.17645476 -49.26171875 395.9140625 C-50.91449094 397.60430308 -52.41844478 399.37646093 -53.9375 401.1875 C-58.15318415 406.08990193 -62.95577903 410.32873714 -67.73046875 414.671875 C-70.09409733 416.82567198 -72.38653635 419.02772331 -74.625 421.3125 C-79.00879498 425.77282008 -83.60339095 430.02726063 -88.8125 433.5 C-88.15961502 433.50586624 -87.50673004 433.51173248 -86.83406067 433.51777649 C-80.03679362 433.58172634 -73.23999933 433.66615062 -66.44311523 433.76245117 C-63.90672032 433.79569888 -61.37025144 433.82373125 -58.83374023 433.84643555 C-55.18701672 433.8799834 -51.54097089 433.93230152 -47.89453125 433.98828125 C-46.19427544 433.99786613 -46.19427544 433.99786613 -44.45967102 434.00764465 C-43.39894882 434.02743881 -42.33822662 434.04723297 -41.24536133 434.06762695 C-40.31492508 434.07873001 -39.38448883 434.08983307 -38.42585754 434.10127258 C-33.47194087 434.85710578 -30.04230388 437.80879557 -26.8125 441.5 C-25.08437997 446.68436008 -24.86769509 452.32694871 -27.0625 457.375 C-31.83952703 463.17567568 -31.83952703 463.17567568 -35.8125 464.5 C-38.33503896 464.59978448 -40.83004174 464.64344807 -43.35275269 464.64044189 C-44.12766308 464.64341302 -44.90257347 464.64638414 -45.700966 464.6494453 C-48.30570043 464.65813863 -50.91038892 464.65964107 -53.51513672 464.66113281 C-55.37936502 464.66576049 -57.24359236 464.67078508 -59.1078186 464.67617798 C-64.17806255 464.68930774 -69.24829325 464.69574792 -74.31855154 464.70018864 C-77.48470965 464.70311808 -80.65086413 464.70722262 -83.81702042 464.71169281 C-93.71886296 464.72536848 -103.62069722 464.73503513 -113.52254856 464.7388947 C-124.96110308 464.74337752 -136.39953823 464.76093554 -147.83805645 464.7898953 C-156.67464248 464.81149277 -165.51119489 464.82159793 -174.34780705 464.82293582 C-179.62802473 464.82398512 -184.90813021 464.82991964 -190.18832016 464.84775543 C-195.15412909 464.86420294 -200.11974106 464.86640779 -205.08556747 464.85761642 C-206.90889004 464.8568443 -208.73222305 464.86121178 -210.5555191 464.87107468 C-213.04334213 464.88374387 -215.53046226 464.87794507 -218.01828003 464.86749268 C-218.74094964 464.87554908 -219.46361925 464.88360548 -220.20818794 464.89190602 C-224.59348237 464.84877087 -227.31253841 464.16084585 -230.8125 461.5 C-235.2525463 456.44328061 -236.11839707 453.57793638 -236.0234375 446.96875 C-235.62960341 442.35943254 -233.47480565 440.2330648 -230.47021484 436.9074707 C-225.80058281 433.09619463 -220.16590371 433.77330292 -214.4140625 433.79296875 C-213.22396576 433.77784744 -212.03386902 433.76272614 -210.80770874 433.74714661 C-207.01744657 433.70425893 -203.22798069 433.69542988 -199.4375 433.6875 C-196.86326006 433.66435676 -194.28903908 433.6389918 -191.71484375 433.61132812 C-185.41405495 433.54846477 -179.11357746 433.51353928 -172.8125 433.5 C-173.32605545 433.05219681 -173.8396109 432.60439362 -174.36872864 432.14302063 C-185.50029593 422.42236831 -196.14614065 412.32930223 -206.57788086 401.86499023 C-208.63607157 399.80139939 -210.6996098 397.74326325 -212.76367188 395.68554688 C-214.09927934 394.3492791 -215.43457684 393.01270143 -216.76953125 391.67578125 C-217.37384476 391.07349197 -217.97815826 390.4712027 -218.6007843 389.85066223 C-222.86698856 385.56132731 -226.86524659 381.08275269 -230.8125 376.5 C-231.85807498 375.30875353 -232.90475656 374.1184763 -233.953125 372.9296875 C-241.19801767 364.66625154 -248.16398993 356.2503685 -254.8125 347.5 C-255.33924316 346.80986816 -255.86598633 346.11973633 -256.40869141 345.40869141 C-292.88413494 297.4169275 -321.53556252 242.81935761 -329.8125 182.5 C-329.915625 181.7680542 -330.01875 181.0361084 -330.125 180.28198242 C-331.18873416 171.46533579 -331.05633502 162.55462864 -331.0625 153.6875 C-331.06317474 152.81661743 -331.06384949 151.94573486 -331.06454468 151.04846191 C-331.04847572 137.99325624 -330.66476361 125.29205444 -327.8125 112.5 C-327.64089355 111.71931152 -327.46928711 110.93862305 -327.29248047 110.13427734 C-318.53361281 71.59995607 -300.00508718 38.88961963 -272.8125 10.5 C-272.10351562 9.74976563 -271.39453125 8.99953125 -270.6640625 8.2265625 C-243.96830929 -19.34088877 -207.91920346 -36.44802474 -170.8125 -44.5 C-170.05420898 -44.67644043 -169.29591797 -44.85288086 -168.51464844 -45.03466797 C-109.90474222 -58.28823036 -44.81672976 -38.63809029 0 0 Z " fill="#20C9AF" transform="translate(386.8125,47.5)"/>
<path d="M0 0 C0 26.73 0 53.46 0 81 C24.80047009 80.84205523 24.80047009 80.84205523 49.60058594 80.63964844 C54.43408203 80.62158203 54.43408203 80.62158203 56.70806885 80.6182251 C58.27175471 80.61214561 59.83542368 80.59821011 61.39898682 80.57769775 C77.87013398 80.37271065 91.79542433 83.85743245 104.34765625 95.2578125 C127.21659866 119.37021987 119.48384742 152.51469278 120 184 C41.46 184 -37.08 184 -118 184 C-126.45144189 252.46210225 -126.45144189 252.46210225 -111.3125 313.6875 C-110.87550781 314.37199219 -110.43851562 315.05648438 -109.98828125 315.76171875 C-108.02671549 317.96992539 -106.32022298 319.0574599 -103.84375 320.61328125 C-101.348521 322.42817562 -100.18721866 323.36469721 -99.30737305 326.3503418 C-99.09579181 329.09424598 -99.08969272 331.74988941 -99.1875 334.5 C-99.45399799 343.17921103 -99.45399799 343.17921103 -96 351 C-92.87166921 353.89602899 -89.6248617 354.9232626 -85.4375 355.4375 C-80.30157377 354.78383666 -77.20969738 353.30778096 -73.6875 349.5 C-69.02618815 342.59435282 -70.60609179 337.69746864 -70 328 C-46.57 328 -23.14 328 1 328 C1 378.82 1 429.64 1 482 C32.03950683 481.88125991 32.03950683 481.88125991 63.07885742 481.72973633 C69.08654785 481.71618652 69.08654785 481.71618652 71.90034485 481.71366882 C73.86264588 481.70906658 75.82493851 481.69852463 77.78718567 481.68327332 C80.76216336 481.66130955 83.73662328 481.65828212 86.71166992 481.65942383 C87.58367381 481.6486295 88.4556777 481.63783518 89.35410595 481.62671375 C95.42563927 481.65789927 98.64971801 482.91086046 103.25 487 C106.56086954 490.7838509 106.27437303 494.77891972 106.21875 499.5625 C105.76424609 504.62697219 102.69765509 507.76455179 99 511 C95.42537433 512.19154189 92.17979275 512.14487487 88.45974731 512.14044189 C87.68483692 512.14341302 86.90992653 512.14638414 86.111534 512.1494453 C83.50679957 512.15813863 80.90211108 512.15964107 78.29736328 512.16113281 C76.43313498 512.16576049 74.56890764 512.17078508 72.7046814 512.17617798 C67.63443745 512.18930774 62.56420675 512.19574792 57.49394846 512.20018864 C54.32779035 512.20311808 51.16163587 512.20722262 47.99547958 512.21169281 C38.09363704 512.22536848 28.19180278 512.23503513 18.28995144 512.2388947 C6.85139692 512.24337752 -4.58703823 512.26093554 -16.02555645 512.2898953 C-24.86214248 512.31149277 -33.69869489 512.32159793 -42.53530705 512.32293582 C-47.81552473 512.32398512 -53.09563021 512.32991964 -58.37582016 512.34775543 C-63.34162909 512.36420294 -68.30724106 512.36640779 -73.27306747 512.35761642 C-75.09639004 512.3568443 -76.91972305 512.36121178 -78.7430191 512.37107468 C-81.23084213 512.38374387 -83.71796226 512.37794507 -86.20578003 512.36749268 C-86.92844964 512.37554908 -87.65111925 512.38360548 -88.39568794 512.39190602 C-92.78098237 512.34877087 -95.50003841 511.66084585 -99 509 C-103.4400463 503.94328061 -104.30589707 501.07793638 -104.2109375 494.46875 C-103.81710341 489.85943254 -101.66230565 487.7330648 -98.65771484 484.4074707 C-93.98808281 480.59619463 -88.35340371 481.27330292 -82.6015625 481.29296875 C-81.41146576 481.27784744 -80.22136902 481.26272614 -78.99520874 481.24714661 C-75.20494657 481.20425893 -71.41548069 481.19542988 -67.625 481.1875 C-65.05076006 481.16435676 -62.47653908 481.1389918 -59.90234375 481.11132812 C-53.60155495 481.04846477 -47.30107746 481.01353928 -41 481 C-41.51355545 480.55219681 -42.0271109 480.10439362 -42.55622864 479.64302063 C-53.68779593 469.92236831 -64.33364065 459.82930223 -74.76538086 449.36499023 C-76.82357157 447.30139939 -78.8871098 445.24326325 -80.95117188 443.18554688 C-82.28677934 441.8492791 -83.62207684 440.51270143 -84.95703125 439.17578125 C-85.56134476 438.57349197 -86.16565826 437.9712027 -86.7882843 437.35066223 C-91.05448856 433.06132731 -95.05274659 428.58275269 -99 424 C-100.04557498 422.80875353 -101.09225656 421.6184763 -102.140625 420.4296875 C-109.38551767 412.16625154 -116.35148993 403.7503685 -123 395 C-123.52674316 394.30986816 -124.05348633 393.61973633 -124.59619141 392.90869141 C-161.07163494 344.9169275 -189.72306252 290.31935761 -198 230 C-198.103125 229.2680542 -198.20625 228.5361084 -198.3125 227.78198242 C-199.37623416 218.96533579 -199.24383502 210.05462864 -199.25 201.1875 C-199.25067474 200.31661743 -199.25134949 199.44573486 -199.25204468 198.54846191 C-199.23597572 185.49325624 -198.85226361 172.79205444 -196 160 C-195.82839355 159.21931152 -195.65678711 158.43862305 -195.47998047 157.63427734 C-186.72111281 119.09995607 -168.19258718 86.38961963 -141 58 C-140.29101562 57.24976563 -139.58203125 56.49953125 -138.8515625 55.7265625 C-109.76539453 25.69064211 -69.56897239 7.79122187 -28.75 1.125 C-28.04383545 1.00455322 -27.3376709 0.88410645 -26.61010742 0.76000977 C-17.68990803 -0.52283493 -9.17405597 0 0 0 Z " fill="#94E797" transform="translate(255,0)"/>
<path d="M0 0 C78.54 0 157.08 0 238 0 C238 124.90769231 238 124.90769231 227.96875 135.0546875 C222.4871988 140 222.4871988 140 220 140 C220.02094727 140.59949463 220.04189453 141.19898926 220.06347656 141.81665039 C220.14725274 144.56509242 220.19885144 147.31326492 220.25 150.0625 C220.28351563 151.00544922 220.31703125 151.94839844 220.3515625 152.91992188 C220.43911671 159.20193635 219.78555072 162.91921676 216 168 C212.35801134 171.1818659 208.23074414 172.33766954 203.4375 172.125 C198.5395578 171.29455305 195.08002213 168.85642661 192 165 C190 160 190 160 190 144 C143.14 144 96.28 144 48 144 C48 149.28 48 154.56 48 160 C45.00285089 165.99429822 44.00726401 167.34886999 39 171 C34.74591781 172.4180274 31.10855115 172.89758508 26.87109375 171.09375 C22.18779988 168.40279662 19.90308774 166.21457681 18 161 C17.65475315 157.36441316 17.71612131 153.77256258 17.8125 150.125 C17.82603516 149.15046875 17.83957031 148.1759375 17.85351562 147.171875 C17.88868038 144.78067137 17.9378933 142.39063025 18 140 C17.25878906 139.75507813 16.51757812 139.51015625 15.75390625 139.2578125 C9.1653719 136.24858121 4.73369323 129.30658489 1.69140625 122.921875 C-12.18025909 84.3633476 0 40.97783711 0 0 Z " fill="#074A7F" transform="translate(137,184)"/>
<path d="M0 0 C1.26006866 -0.0071553 2.52013733 -0.01431061 3.81838989 -0.02168274 C5.20741247 -0.02452268 6.59643532 -0.02723445 7.98545837 -0.02983093 C9.4543931 -0.03610045 10.92332625 -0.04274768 12.39225769 -0.04974365 C17.20969042 -0.0707336 22.02712326 -0.08114332 26.84458923 -0.09111023 C28.50757297 -0.09516009 30.17055655 -0.09927708 31.83353996 -0.10346031 C39.65036718 -0.12250319 47.46718503 -0.13673445 55.28403097 -0.14507228 C64.28428267 -0.15483272 73.28428766 -0.18112473 82.2844525 -0.22157317 C89.25538586 -0.25181818 96.22624884 -0.26654919 103.19724649 -0.26985329 C107.3537473 -0.27219478 111.50998429 -0.28103649 115.66641426 -0.30631447 C119.58256693 -0.32974676 123.4982849 -0.3337683 127.41448975 -0.32355309 C128.84303173 -0.32306122 130.27159623 -0.32927715 131.70007133 -0.34310913 C147.16401516 -0.48433382 160.51599589 3.88889639 172.09458923 14.40498352 C194.96353165 38.51739089 187.23078041 71.6618638 187.74693298 103.14717102 C109.53693298 103.14717102 31.32693298 103.14717102 -49.25306702 103.14717102 C-49.25306702 30.49788346 -49.25306702 30.49788346 -34.99525452 14.79951477 C-25.43196494 5.72939932 -13.21103193 0.05163769 0 0 Z " fill="#D0E7FD" transform="translate(187.25306701660156,80.85282897949219)"/>
<path d="M0 0 C0.33 0 0.66 0 1 0 C1 9.9 1 19.8 1 30 C39.94 30 78.88 30 119 30 C119 67.62 119 105.24 119 144 C95.57 144 72.14 144 48 144 C48 149.28 48 154.56 48 160 C45.00285089 165.99429822 44.00726401 167.34886999 39 171 C34.74591781 172.4180274 31.10855115 172.89758508 26.87109375 171.09375 C22.18779988 168.40279662 19.90308774 166.21457681 18 161 C17.65475315 157.36441316 17.71612131 153.77256258 17.8125 150.125 C17.82603516 149.15046875 17.83957031 148.1759375 17.85351562 147.171875 C17.88868038 144.78067137 17.9378933 142.39063025 18 140 C17.25878906 139.75507813 16.51757812 139.51015625 15.75390625 139.2578125 C9.1653719 136.24858121 4.73369323 129.30658489 1.69140625 122.921875 C0.27389543 118.98167543 -0.12476803 115.16088903 -0.12025452 110.99491882 C-0.12162918 110.01200363 -0.12300385 109.02908844 -0.12442017 108.01638794 C-0.12082489 106.94967865 -0.11722961 105.88296936 -0.11352539 104.78393555 C-0.11367142 103.65179123 -0.11381744 102.51964691 -0.1139679 101.35319519 C-0.11327172 97.61435016 -0.10549306 93.87555507 -0.09765625 90.13671875 C-0.09579102 87.54311653 -0.09436761 84.94951395 -0.09336853 82.35591125 C-0.08994164 76.22910598 -0.08206162 70.10232129 -0.07201904 63.97552377 C-0.06083173 56.99851766 -0.05534086 50.02151069 -0.05032361 43.04449785 C-0.0398783 28.6963223 -0.02229518 14.34816178 0 0 Z " fill="#3F70AC" transform="translate(137,184)"/>
<path d="M0 0 C0.73224792 -0.00014603 1.46449585 -0.00029205 2.21893311 -0.0004425 C4.62669897 0.00025126 7.0343864 0.00801847 9.44213867 0.01586914 C11.1165106 0.01773522 12.79088307 0.01915823 14.46525574 0.02015686 C18.86287963 0.02396704 23.26047026 0.03378449 27.65808105 0.04486084 C32.14924673 0.05510723 36.64041779 0.05966139 41.1315918 0.06469727 C49.93694556 0.07540813 58.74227235 0.09246651 67.54760742 0.11352539 C67.57072822 13.39539948 67.58852116 26.67726882 67.59941959 39.9591589 C67.604649 46.1257746 67.61174769 52.29237657 67.62304688 58.45898438 C67.63387371 64.40468545 67.63988382 70.35037328 67.64248466 76.29608345 C67.64433928 78.56999482 67.64796059 80.84390543 67.65333748 83.1178112 C67.6605452 86.29079659 67.66159848 89.46372656 67.66113281 92.63671875 C67.66472809 93.5868988 67.66832336 94.53707886 67.67202759 95.51605225 C67.66165958 101.99947323 67.66165958 101.99947323 66.54760742 103.11352539 C65.02942222 103.20931132 63.50678346 103.23540686 61.98558044 103.23377991 C60.50683441 103.2358419 60.50683441 103.2358419 58.99821472 103.23794556 C57.90777359 103.23435028 56.81733246 103.230755 55.69384766 103.22705078 C53.98187698 103.22726982 53.98187698 103.22726982 52.23532104 103.22749329 C48.44226211 103.22679357 44.64925158 103.21899846 40.85620117 103.21118164 C38.23446174 103.20931767 35.61272196 103.20789367 32.99098206 103.20689392 C26.78258787 103.2037809 20.57421121 103.19556791 14.36582476 103.18554443 C7.29943301 103.17438238 0.23304044 103.16887261 -6.83335793 103.163849 C-21.3730452 103.15338527 -35.91271865 103.1357864 -50.45239258 103.11352539 C-50.54559286 95.21976773 -50.61640829 87.32624481 -50.65964127 79.43207073 C-50.68040427 75.76538673 -50.70851102 72.09908263 -50.75415039 68.43261719 C-50.79801698 64.88586067 -50.82161425 61.33946662 -50.83190155 57.79245949 C-50.84275179 55.79907385 -50.87391081 53.80583146 -50.90557861 51.81266785 C-50.9090294 37.6444934 -45.75388697 25.29101274 -36.19458008 14.76586914 C-26.18330628 5.27087179 -13.74790794 -0.07233342 0 0 Z " fill="#E7F1FE" transform="translate(188.452392578125,80.886474609375)"/>
<path d="M0 0 C77.88 0 155.76 0 236 0 C236 9.9 236 19.8 236 30 C158.12 30 80.24 30 0 30 C0 20.1 0 10.2 0 0 Z " fill="#02255D" transform="translate(138,184)"/>
<path d="M0 0 C0.78155722 -0.00638882 1.56311444 -0.01277764 2.36835521 -0.01936007 C4.97810657 -0.03457834 7.58633201 -0.01417102 10.19602966 0.00622559 C12.07055666 0.00272345 13.94508069 -0.00293616 15.81959534 -0.0105896 C20.90432194 -0.02483297 25.98850748 -0.0077809 31.07318234 0.01569557 C36.39464187 0.03580541 41.71607896 0.02992499 47.03756714 0.02758789 C55.97280296 0.02764146 64.90782728 0.04739584 73.84300232 0.07946777 C84.17456242 0.11637152 94.50584556 0.12514169 104.83746296 0.11817026 C114.77618054 0.11186639 124.71480311 0.1226167 134.65350151 0.14213562 C138.88346141 0.15031211 143.11337277 0.15301871 147.34333992 0.15144348 C152.32319295 0.15056491 157.30278254 0.16477332 162.28256607 0.19067001 C164.1107105 0.19783538 165.93888296 0.19991366 167.76703835 0.19655228 C170.2613197 0.19284071 172.75483086 0.2075733 175.24902344 0.22705078 C176.33579474 0.21905889 176.33579474 0.21905889 177.44452101 0.21090555 C183.12124467 0.287459 186.15357962 1.92595749 190.3110199 5.62145996 C193.62188944 9.40531086 193.33539292 13.40037968 193.2797699 18.18395996 C192.82526598 23.24843215 189.75867499 26.38601175 186.0610199 29.62145996 C182.48639422 30.81300185 179.24081265 30.76633483 175.52076721 30.76190186 C174.74585682 30.76487298 173.97094642 30.7678441 173.1725539 30.77090526 C170.56781947 30.7795986 167.96313097 30.78110103 165.35838318 30.78259277 C163.49415488 30.78722045 161.62992753 30.79224504 159.76570129 30.79763794 C154.69545735 30.8107677 149.62522665 30.81720788 144.55496836 30.8216486 C141.38881024 30.82457804 138.22265577 30.82868258 135.05649948 30.83315277 C125.15465694 30.84682845 115.25282268 30.85649509 105.35097134 30.86035466 C93.91241682 30.86483748 82.47398167 30.8823955 71.03546345 30.91135526 C62.19887741 30.93295273 53.36232501 30.94305789 44.52571285 30.94439578 C39.24549517 30.94544508 33.96538969 30.95137961 28.68519974 30.96921539 C23.71939081 30.9856629 18.75377884 30.98786775 13.78795242 30.97907639 C11.96462986 30.97830426 10.14129685 30.98267174 8.31800079 30.99253464 C5.83017777 31.00520383 3.34305763 30.99940503 0.85523987 30.98895264 C0.13257026 30.99700904 -0.59009935 31.00506545 -1.33466804 31.01336598 C-5.71996247 30.97023083 -8.43901851 30.28230581 -11.9389801 27.62145996 C-16.3790264 22.56474057 -17.24487718 19.69939634 -17.1499176 13.09020996 C-16.74611846 8.36426443 -14.5882231 6.26497503 -11.31797886 3.02358246 C-7.78562345 0.13852511 -4.44158323 -0.07697679 0 0 Z " fill="#9FD0FD" transform="translate(167.93898010253906,481.3785400390625)"/>
<path d="M0 0 C38.94 0 77.88 0 118 0 C118 9.9 118 19.8 118 30 C79.06 30 40.12 30 0 30 C0 20.1 0 10.2 0 0 Z " fill="#074A7F" transform="translate(138,184)"/>
<path d="M0 0 C0.92746536 -0.00073013 1.85493073 -0.00146027 2.8105011 -0.00221252 C5.86271542 0.00125875 8.91338576 0.04009865 11.96533203 0.0793457 C14.08667161 0.08867545 16.208022 0.0957908 18.32937622 0.1007843 C23.90272966 0.1198412 29.47542777 0.16893142 35.04852295 0.2243042 C40.73945247 0.27552449 46.43048826 0.29830433 52.12158203 0.32348633 C63.28076991 0.37705108 74.4393001 0.46497695 85.59814453 0.56762695 C85.59814453 10.46762695 85.59814453 20.36762695 85.59814453 30.56762695 C73.42842697 30.63539288 61.25883465 30.6904375 49.08897114 30.72306347 C43.43806768 30.73872196 37.78729995 30.75996383 32.13647461 30.79394531 C26.68351595 30.82653185 21.2306879 30.84447858 15.77763939 30.85225868 C13.6968092 30.85780343 11.61598619 30.86863089 9.53521156 30.88481712 C6.62154293 30.90658179 3.70841453 30.90959425 0.79467773 30.90820312 C-0.06631531 30.91898895 -0.92730835 30.92977478 -1.81439209 30.94088745 C-6.5188758 30.91656912 -9.57462875 30.60383638 -13.40185547 27.56762695 C-17.84190176 22.51090756 -18.70775254 19.64556334 -18.61279297 13.03637695 C-18.21230734 8.34921178 -16.05406398 6.23831454 -12.87228394 2.96638489 C-8.85010082 -0.31613024 -5.01391869 -0.10398876 0 0 Z " fill="#D1E8FE" transform="translate(169.40185546875,481.432373046875)"/>
<path d="M0 0 C1.093125 0.31710937 2.18625 0.63421875 3.3125 0.9609375 C8.51379043 2.26126011 13.66034038 2.44823885 19 2.625 C19.96550781 2.66367187 20.93101562 2.70234375 21.92578125 2.7421875 C24.2836744 2.83556941 26.64157756 2.92134329 29 3 C29.1630807 6.02303295 29.28136405 9.03716706 29.375 12.0625 C29.45041016 13.33383789 29.45041016 13.33383789 29.52734375 14.63085938 C29.63850994 19.42953337 29.27392646 22.28621521 26.12890625 26.03125 C22.58632413 29.69610256 19.73223607 30.7712141 14.6875 31.4375 C9.95626842 30.87616744 6.49169113 29.26397214 3 26 C-0.61059843 20.69463087 -0.35907851 15.79302731 -0.1875 9.625 C-0.17396484 8.69816406 -0.16042969 7.77132813 -0.14648438 6.81640625 C-0.11133881 4.54366002 -0.06214132 2.27214153 0 0 Z " fill="#084B7F" transform="translate(155,325)"/>
<path d="M0 0 C0.117292 3.18718443 0.18760766 6.37380568 0.25 9.5625 C0.30027344 10.90538086 0.30027344 10.90538086 0.3515625 12.27539062 C0.44172852 18.42922138 -0.32054274 22.00969553 -4 27 C-7.64198866 30.1818659 -11.76925586 31.33766954 -16.5625 31.125 C-21.51371699 30.3098083 -24.71691306 27.68370172 -28 24 C-29.17426264 21.65147472 -29.11508173 20.26225935 -29.09765625 17.6484375 C-29.09443359 16.79765625 -29.09121094 15.946875 -29.08789062 15.0703125 C-29.07951172 14.18085938 -29.07113281 13.29140625 -29.0625 12.375 C-29.05798828 11.4778125 -29.05347656 10.580625 -29.04882812 9.65625 C-29.03702591 7.43743352 -29.02056155 5.21874982 -29 3 C-28.39526855 2.98018066 -27.79053711 2.96036133 -27.16748047 2.93994141 C-24.40291491 2.84413701 -21.63904826 2.73468445 -18.875 2.625 C-17.44800781 2.57859375 -17.44800781 2.57859375 -15.9921875 2.53125 C-10.53292437 2.3037807 -5.19248235 0 0 0 Z " fill="#02265D" transform="translate(357,325)"/>
<path d="M0 0 C0 9.9 0 19.8 0 30 C-17.34482759 30 -17.34482759 30 -22 27 C-25.96322679 22.93247777 -26.79465336 20.17667442 -27.3125 14.6875 C-26.80684437 8.72076359 -24.69090095 5.49875311 -20.25 1.5625 C-14.35927686 -1.4933939 -6.30469417 -0.20841964 0 0 Z " fill="#0B4D81" transform="translate(138,142)"/>
<path d="M0 0 C4.83763525 2.32923179 7.63619663 5.18147775 10 10 C10.94656437 15.29303343 10.37287699 19.96678585 7.39453125 24.4921875 C3.80754827 28.37055005 -0.50345511 29.79358002 -5.625 30.5 C-10.91430998 29.71639852 -13.83210482 27.32571885 -17.3125 23.375 C-20.4369349 18.97764718 -20.77352688 15.31039241 -20 10 C-15.99053374 1.29895912 -9.19848607 -1.31406944 0 0 Z " fill="#FADE7F" transform="translate(207,243)"/>
<path d="M0 0 C18.42352941 0 18.42352941 0 23 4 C25.74294511 7.17521439 26.89281368 10.26309403 27.5 14.4375 C26.75114857 19.7730664 24.9011285 24.15828176 21 27.9375 C14.27664586 31.50928189 7.90725398 30 0 30 C0 20.1 0 10.2 0 0 Z " fill="#04285F" transform="translate(374,142)"/>
<path d="M0 0 C4.58653417 2.08789988 8.13053996 5.27136577 10 10 C10.53536426 15.62132473 10.21166245 19.18250633 7 24 C3.29036867 27.75017375 0.08851186 29.79918155 -5.25 30.3125 C-9.62890831 29.94759097 -12.72222621 28.88833532 -16 26 C-19.78983236 20.96175227 -20.79736001 16.17954009 -20 10 C-15.75659742 1.51319484 -9.18980068 -1.68673557 0 0 Z " fill="#F9B05D" transform="translate(315,243)"/>
</svg>
